<?xml version="1.0" encoding="UTF-8" standalone="no"?>
<!DOCTYPE svg PUBLIC "-//W3C//DTD SVG 1.1//EN"
 "http://www.w3.org/Graphics/SVG/1.1/DTD/svg11.dtd">
<!-- Generated by graphviz version 2.43.0 (0)
 -->
<!-- Title: G Pages: 1 -->
<svg width="270pt" height="332pt"
 viewBox="0.00 0.00 269.50 332.00" xmlns="http://www.w3.org/2000/svg" xmlns:xlink="http://www.w3.org/1999/xlink">
<g id="graph0" class="graph" transform="scale(1 1) rotate(0) translate(4 328)">
<title>G</title><style>.edge>path:hover{stroke-width:8}</style>
<polygon fill="white" stroke="transparent" points="-4,4 -4,-328 265.5,-328 265.5,4 -4,4"/>
<!-- tmvectortool -->
<g id="node1" class="node">
<title>tmvectortool</title><style>.edge>path:hover{stroke-width:8}</style>
<ellipse fill="#3d8f8f" stroke="black" cx="125.5" cy="-18" rx="47.19" ry="18"/>
<text text-anchor="middle" x="125.5" y="-15.5" font-family="Helvetica,sans-Serif" font-size="10.00" fill="#ffffff">tmvectortool</text>
</g>
<!-- coreconfig -->
<g id="node2" class="node">
<title>coreconfig</title><style>.edge>path:hover{stroke-width:8}</style>
<polygon fill="#b34c4c" stroke="black" points="67,-108 64,-112 43,-112 40,-108 0,-108 0,-72 67,-72 67,-108"/>
<text text-anchor="middle" x="33.5" y="-87.5" font-family="Helvetica,sans-Serif" font-size="10.00" fill="#ffffff">coreconfig</text>
</g>
<!-- coreconfig&#45;&gt;tmvectortool -->
<g id="edge1" class="edge">
<title>coreconfig&#45;&gt;tmvectortool</title><style>.edge>path:hover{stroke-width:8}</style>
<path fill="none" stroke="black" d="M56.24,-71.7C68.55,-62.33 83.88,-50.67 96.98,-40.7"/>
<polygon fill="#b34c4c" stroke="black" points="99.37,-43.28 105.21,-34.44 95.13,-37.71 99.37,-43.28"/>
</g>
<!-- fixedint -->
<g id="node3" class="node">
<title>fixedint</title><style>.edge>path:hover{stroke-width:8}</style>
<polygon fill="#d6840b" stroke="black" points="189.5,-324 186.5,-328 165.5,-328 162.5,-324 135.5,-324 135.5,-288 189.5,-288 189.5,-324"/>
<text text-anchor="middle" x="162.5" y="-303.5" font-family="Helvetica,sans-Serif" font-size="10.00" fill="#000000">fixedint</text>
</g>
<!-- payload -->
<g id="node6" class="node">
<title>payload</title><style>.edge>path:hover{stroke-width:8}</style>
<polygon fill="#24d069" stroke="black" points="123.5,-252 120.5,-256 99.5,-256 96.5,-252 67.5,-252 67.5,-216 123.5,-216 123.5,-252"/>
<text text-anchor="middle" x="95.5" y="-231.5" font-family="Helvetica,sans-Serif" font-size="10.00" fill="#000000">payload</text>
</g>
<!-- fixedint&#45;&gt;payload -->
<g id="edge2" class="edge">
<title>fixedint&#45;&gt;payload</title><style>.edge>path:hover{stroke-width:8}</style>
<path fill="none" stroke="black" d="M145.94,-287.7C137.82,-279.22 127.91,-268.86 119.03,-259.58"/>
<polygon fill="#d6840b" stroke="black" points="121.31,-256.91 111.87,-252.1 116.26,-261.75 121.31,-256.91"/>
</g>
<!-- tokens -->
<g id="node8" class="node">
<title>tokens</title><style>.edge>path:hover{stroke-width:8}</style>
<polygon fill="#523ab0" stroke="black" points="201.5,-180 198.5,-184 177.5,-184 174.5,-180 147.5,-180 147.5,-144 201.5,-144 201.5,-180"/>
<text text-anchor="middle" x="174.5" y="-159.5" font-family="Helvetica,sans-Serif" font-size="10.00" fill="#ffffff">tokens</text>
</g>
<!-- fixedint&#45;&gt;tokens -->
<g id="edge3" class="edge">
<title>fixedint&#45;&gt;tokens</title><style>.edge>path:hover{stroke-width:8}</style>
<path fill="none" stroke="black" d="M163.95,-287.87C165.99,-263.67 169.75,-219.21 172.19,-190.39"/>
<polygon fill="#d6840b" stroke="black" points="175.69,-190.45 173.05,-180.19 168.72,-189.86 175.69,-190.45"/>
</g>
<!-- minxml -->
<g id="node4" class="node">
<title>minxml</title><style>.edge>path:hover{stroke-width:8}</style>
<polygon fill="#a2b653" stroke="black" points="261.5,-108 258.5,-112 237.5,-112 234.5,-108 207.5,-108 207.5,-72 261.5,-72 261.5,-108"/>
<text text-anchor="middle" x="234.5" y="-87.5" font-family="Helvetica,sans-Serif" font-size="10.00" fill="#000000">minxml</text>
</g>
<!-- minxml&#45;&gt;tmvectortool -->
<g id="edge4" class="edge">
<title>minxml&#45;&gt;tmvectortool</title><style>.edge>path:hover{stroke-width:8}</style>
<path fill="none" stroke="black" d="M207.84,-71.88C192.52,-62.04 173.2,-49.63 157.12,-39.31"/>
<polygon fill="#a2b653" stroke="black" points="158.87,-36.27 148.57,-33.81 155.09,-42.16 158.87,-36.27"/>
</g>
<!-- parameters -->
<g id="node5" class="node">
<title>parameters</title><style>.edge>path:hover{stroke-width:8}</style>
<polygon fill="#67b653" stroke="black" points="117,-324 114,-328 93,-328 90,-324 44,-324 44,-288 117,-288 117,-324"/>
<text text-anchor="middle" x="80.5" y="-303.5" font-family="Helvetica,sans-Serif" font-size="10.00" fill="#000000">parameters</text>
</g>
<!-- parameters&#45;&gt;payload -->
<g id="edge5" class="edge">
<title>parameters&#45;&gt;payload</title><style>.edge>path:hover{stroke-width:8}</style>
<path fill="none" stroke="black" d="M84.21,-287.7C85.86,-279.98 87.85,-270.71 89.69,-262.11"/>
<polygon fill="#67b653" stroke="black" points="93.16,-262.62 91.83,-252.1 86.32,-261.15 93.16,-262.62"/>
</g>
<!-- payload&#45;&gt;tmvectortool -->
<g id="edge7" class="edge">
<title>payload&#45;&gt;tmvectortool</title><style>.edge>path:hover{stroke-width:8}</style>
<path fill="none" stroke="black" d="M33.5,-161C27.2,-119.92 88.96,-132.04 95.5,-91"/>
<path fill="none" stroke="black" d="M95.5,-89C97.94,-73.71 104.43,-57.75 110.75,-44.94"/>
<polygon fill="#24d069" stroke="black" points="113.98,-46.31 115.48,-35.83 107.77,-43.09 113.98,-46.31"/>
</g>
<!-- payload&#45;&gt;coreconfig -->
<g id="edge6" class="edge">
<title>payload&#45;&gt;coreconfig</title><style>.edge>path:hover{stroke-width:8}</style>
<path fill="none" stroke="black" d="M69.95,-215.94C54.39,-203.49 36.87,-184.98 33.5,-163"/>
<path fill="none" stroke="black" d="M33.5,-161C31.36,-147.02 31.16,-131.28 31.59,-118.27"/>
<polygon fill="#24d069" stroke="black" points="35.09,-118.24 32.06,-108.08 28.1,-117.91 35.09,-118.24"/>
</g>
<!-- payload&#45;&gt;tokens -->
<g id="edge8" class="edge">
<title>payload&#45;&gt;tokens</title><style>.edge>path:hover{stroke-width:8}</style>
<path fill="none" stroke="black" d="M115.03,-215.7C124.88,-206.97 136.99,-196.24 147.7,-186.75"/>
<polygon fill="#24d069" stroke="black" points="150.03,-189.36 155.2,-180.1 145.39,-184.12 150.03,-189.36"/>
</g>
<!-- valueToInt -->
<g id="node9" class="node">
<title>valueToInt</title><style>.edge>path:hover{stroke-width:8}</style>
<polygon fill="#9e4cb3" stroke="black" points="129,-180 126,-184 105,-184 102,-180 62,-180 62,-144 129,-144 129,-180"/>
<text text-anchor="middle" x="95.5" y="-159.5" font-family="Helvetica,sans-Serif" font-size="10.00" fill="#ffffff">valueToInt</text>
</g>
<!-- payload&#45;&gt;valueToInt -->
<g id="edge9" class="edge">
<title>payload&#45;&gt;valueToInt</title><style>.edge>path:hover{stroke-width:8}</style>
<path fill="none" stroke="black" d="M95.5,-215.7C95.5,-207.98 95.5,-198.71 95.5,-190.11"/>
<polygon fill="#24d069" stroke="black" points="99,-190.1 95.5,-180.1 92,-190.1 99,-190.1"/>
</g>
<!-- tobitwise -->
<g id="node7" class="node">
<title>tobitwise</title><style>.edge>path:hover{stroke-width:8}</style>
<polygon fill="#537bb6" stroke="black" points="252.5,-252 249.5,-256 228.5,-256 225.5,-252 190.5,-252 190.5,-216 252.5,-216 252.5,-252"/>
<text text-anchor="middle" x="221.5" y="-231.5" font-family="Helvetica,sans-Serif" font-size="10.00" fill="#ffffff">tobitwise</text>
</g>
<!-- tobitwise&#45;&gt;tokens -->
<g id="edge10" class="edge">
<title>tobitwise&#45;&gt;tokens</title><style>.edge>path:hover{stroke-width:8}</style>
<path fill="none" stroke="black" d="M209.88,-215.7C204.36,-207.47 197.65,-197.48 191.57,-188.42"/>
<polygon fill="#537bb6" stroke="black" points="194.46,-186.46 185.98,-180.1 188.65,-190.36 194.46,-186.46"/>
</g>
<!-- tokens&#45;&gt;tmvectortool -->
<g id="edge11" class="edge">
<title>tokens&#45;&gt;tmvectortool</title><style>.edge>path:hover{stroke-width:8}</style>
<path fill="none" stroke="black" d="M147.18,-144.06C123.46,-128.32 93.23,-105.21 95.5,-91"/>
</g>
<!-- vectorline -->
<g id="node10" class="node">
<title>vectorline</title><style>.edge>path:hover{stroke-width:8}</style>
<polygon fill="#b34c8a" stroke="black" points="189,-108 186,-112 165,-112 162,-108 124,-108 124,-72 189,-72 189,-108"/>
<text text-anchor="middle" x="156.5" y="-87.5" font-family="Helvetica,sans-Serif" font-size="10.00" fill="#ffffff">vectorline</text>
</g>
<!-- tokens&#45;&gt;vectorline -->
<g id="edge12" class="edge">
<title>tokens&#45;&gt;vectorline</title><style>.edge>path:hover{stroke-width:8}</style>
<path fill="none" stroke="black" d="M170.05,-143.7C168.05,-135.9 165.63,-126.51 163.4,-117.83"/>
<polygon fill="#523ab0" stroke="black" points="166.78,-116.92 160.9,-108.1 160,-118.66 166.78,-116.92"/>
</g>
<!-- valueToInt&#45;&gt;tmvectortool -->
<g id="edge13" class="edge">
<title>valueToInt&#45;&gt;tmvectortool</title><style>.edge>path:hover{stroke-width:8}</style>
<path fill="none" stroke="black" d="M94.01,-143.91C93.12,-129.66 92.65,-108.88 95.5,-91"/>
</g>
<!-- vectorline&#45;&gt;tmvectortool -->
<g id="edge14" class="edge">
<title>vectorline&#45;&gt;tmvectortool</title><style>.edge>path:hover{stroke-width:8}</style>
<path fill="none" stroke="black" d="M148.84,-71.7C145.31,-63.73 141.04,-54.1 137.13,-45.26"/>
<polygon fill="#b34c8a" stroke="black" points="140.32,-43.83 133.07,-36.1 133.92,-46.67 140.32,-43.83"/>
</g>
</g>
</svg>
